<mxfile host="app.diagrams.net" modified="2024-07-03T18:53:34.392Z" agent="Mozilla/5.0 (Macintosh; Intel Mac OS X 10_15_7) AppleWebKit/537.36 (KHTML, like Gecko) Chrome/125.0.0.0 Safari/537.36" etag="lSgx9Lh8bgI6RP94YvRm" version="24.6.4" type="device">
  <diagram name="Page-1" id="gMhwIMAEgtmWgPmlkId8">
    <mxGraphModel dx="765" dy="690" grid="1" gridSize="10" guides="1" tooltips="1" connect="1" arrows="1" fold="1" page="1" pageScale="1" pageWidth="850" pageHeight="1100" math="0" shadow="0">
      <root>
        <mxCell id="0" />
        <mxCell id="1" parent="0" />
        <mxCell id="MRV8Bm1xCVtd3Ho0e4G7-6" style="edgeStyle=orthogonalEdgeStyle;rounded=0;orthogonalLoop=1;jettySize=auto;html=1;exitX=1;exitY=0.5;exitDx=0;exitDy=0;entryX=0;entryY=0.5;entryDx=0;entryDy=0;" edge="1" parent="1" source="MRV8Bm1xCVtd3Ho0e4G7-1" target="MRV8Bm1xCVtd3Ho0e4G7-4">
          <mxGeometry relative="1" as="geometry" />
        </mxCell>
        <mxCell id="MRV8Bm1xCVtd3Ho0e4G7-10" style="edgeStyle=orthogonalEdgeStyle;rounded=0;orthogonalLoop=1;jettySize=auto;html=1;exitX=1;exitY=0.5;exitDx=0;exitDy=0;entryX=0;entryY=0.5;entryDx=0;entryDy=0;" edge="1" parent="1" source="MRV8Bm1xCVtd3Ho0e4G7-1" target="MRV8Bm1xCVtd3Ho0e4G7-7">
          <mxGeometry relative="1" as="geometry" />
        </mxCell>
        <mxCell id="MRV8Bm1xCVtd3Ho0e4G7-13" style="edgeStyle=orthogonalEdgeStyle;rounded=0;orthogonalLoop=1;jettySize=auto;html=1;exitX=1;exitY=0.5;exitDx=0;exitDy=0;entryX=0;entryY=0.5;entryDx=0;entryDy=0;" edge="1" parent="1" source="MRV8Bm1xCVtd3Ho0e4G7-1" target="MRV8Bm1xCVtd3Ho0e4G7-3">
          <mxGeometry relative="1" as="geometry" />
        </mxCell>
        <mxCell id="MRV8Bm1xCVtd3Ho0e4G7-1" value="Server" style="rounded=0;whiteSpace=wrap;html=1;" vertex="1" parent="1">
          <mxGeometry x="40" y="280" width="120" height="60" as="geometry" />
        </mxCell>
        <mxCell id="MRV8Bm1xCVtd3Ho0e4G7-19" style="edgeStyle=orthogonalEdgeStyle;rounded=0;orthogonalLoop=1;jettySize=auto;html=1;exitX=1;exitY=0.5;exitDx=0;exitDy=0;" edge="1" parent="1" source="MRV8Bm1xCVtd3Ho0e4G7-3" target="MRV8Bm1xCVtd3Ho0e4G7-20">
          <mxGeometry relative="1" as="geometry">
            <mxPoint x="470" y="310" as="targetPoint" />
          </mxGeometry>
        </mxCell>
        <mxCell id="MRV8Bm1xCVtd3Ho0e4G7-3" value="/hello" style="rounded=1;whiteSpace=wrap;html=1;" vertex="1" parent="1">
          <mxGeometry x="300" y="280" width="120" height="60" as="geometry" />
        </mxCell>
        <mxCell id="MRV8Bm1xCVtd3Ho0e4G7-16" style="edgeStyle=orthogonalEdgeStyle;rounded=0;orthogonalLoop=1;jettySize=auto;html=1;exitX=1;exitY=0.5;exitDx=0;exitDy=0;" edge="1" parent="1" source="MRV8Bm1xCVtd3Ho0e4G7-4">
          <mxGeometry relative="1" as="geometry">
            <mxPoint x="480" y="210" as="targetPoint" />
          </mxGeometry>
        </mxCell>
        <mxCell id="MRV8Bm1xCVtd3Ho0e4G7-4" value="/" style="rounded=1;whiteSpace=wrap;html=1;" vertex="1" parent="1">
          <mxGeometry x="300" y="180" width="120" height="60" as="geometry" />
        </mxCell>
        <mxCell id="MRV8Bm1xCVtd3Ho0e4G7-22" value="" style="edgeStyle=orthogonalEdgeStyle;rounded=0;orthogonalLoop=1;jettySize=auto;html=1;" edge="1" parent="1" source="MRV8Bm1xCVtd3Ho0e4G7-7" target="MRV8Bm1xCVtd3Ho0e4G7-21">
          <mxGeometry relative="1" as="geometry" />
        </mxCell>
        <mxCell id="MRV8Bm1xCVtd3Ho0e4G7-7" value="/form" style="rounded=1;whiteSpace=wrap;html=1;" vertex="1" parent="1">
          <mxGeometry x="300" y="370" width="120" height="60" as="geometry" />
        </mxCell>
        <mxCell id="MRV8Bm1xCVtd3Ho0e4G7-17" value="index.html" style="rounded=1;whiteSpace=wrap;html=1;" vertex="1" parent="1">
          <mxGeometry x="480" y="180" width="120" height="60" as="geometry" />
        </mxCell>
        <mxCell id="MRV8Bm1xCVtd3Ho0e4G7-20" value="hello func" style="rounded=1;whiteSpace=wrap;html=1;" vertex="1" parent="1">
          <mxGeometry x="480" y="280" width="120" height="60" as="geometry" />
        </mxCell>
        <mxCell id="MRV8Bm1xCVtd3Ho0e4G7-24" value="" style="edgeStyle=orthogonalEdgeStyle;rounded=0;orthogonalLoop=1;jettySize=auto;html=1;" edge="1" parent="1" source="MRV8Bm1xCVtd3Ho0e4G7-21" target="MRV8Bm1xCVtd3Ho0e4G7-23">
          <mxGeometry relative="1" as="geometry" />
        </mxCell>
        <mxCell id="MRV8Bm1xCVtd3Ho0e4G7-21" value="form func" style="whiteSpace=wrap;html=1;rounded=1;" vertex="1" parent="1">
          <mxGeometry x="500" y="370" width="120" height="60" as="geometry" />
        </mxCell>
        <mxCell id="MRV8Bm1xCVtd3Ho0e4G7-23" value="form.html" style="whiteSpace=wrap;html=1;rounded=1;" vertex="1" parent="1">
          <mxGeometry x="700" y="370" width="120" height="60" as="geometry" />
        </mxCell>
      </root>
    </mxGraphModel>
  </diagram>
</mxfile>
